<svg width="245" height="158" viewBox="0 0 245 158" fill="none" xmlns="http://www.w3.org/2000/svg">
<g filter="url(#filter0_b_1_4)">
<mask id="path-1-inside-1_1_4" fill="white">
<path fill-rule="evenodd" clip-rule="evenodd" d="M91 0C110.438 0 127.286 11.0924 135.558 27.2927C137.346 27.0993 139.161 27 141 27C162.102 27 180.151 40.0721 187.49 58.5603C189.94 58.1913 192.447 58 195 58C222.614 58 245 80.3858 245 108C245 134.607 224.218 156.36 198 157.911V158H195H51V157.99C50.6675 157.997 50.3341 158 50 158C22.3858 158 0 135.614 0 108C0 83.1958 18.0615 62.6102 41.7503 58.6774C41.2571 55.8591 41 52.9596 41 50C41 22.3858 63.3858 0 91 0Z"/>
</mask>
<path fill-rule="evenodd" clip-rule="evenodd" d="M91 0C110.438 0 127.286 11.0924 135.558 27.2927C137.346 27.0993 139.161 27 141 27C162.102 27 180.151 40.0721 187.49 58.5603C189.94 58.1913 192.447 58 195 58C222.614 58 245 80.3858 245 108C245 134.607 224.218 156.36 198 157.911V158H195H51V157.99C50.6675 157.997 50.3341 158 50 158C22.3858 158 0 135.614 0 108C0 83.1958 18.0615 62.6102 41.7503 58.6774C41.2571 55.8591 41 52.9596 41 50C41 22.3858 63.3858 0 91 0Z" fill="#A5DEFF" fill-opacity="0.53"/>
<path d="M135.558 27.2927L134.668 27.7475L134.981 28.361L135.666 28.2869L135.558 27.2927ZM187.49 58.5603L186.56 58.9292L186.854 59.6674L187.639 59.5491L187.49 58.5603ZM198 157.911L197.941 156.913L197 156.969V157.911H198ZM198 158V159H199V158H198ZM51 158H50V159H51V158ZM51 157.99H52V156.97L50.9804 156.99L51 157.99ZM41.7503 58.6774L41.9141 59.6639L42.9092 59.4987L42.7353 58.505L41.7503 58.6774ZM136.449 26.8379C128.012 10.3161 110.829 -1 91 -1V1C110.048 1 126.56 11.8687 134.668 27.7475L136.449 26.8379ZM141 26C139.125 26 137.274 26.1012 135.451 26.2985L135.666 28.2869C137.418 28.0973 139.197 28 141 28V26ZM188.419 58.1913C180.934 39.3352 162.525 26 141 26V28C161.678 28 179.367 40.8091 186.56 58.9292L188.419 58.1913ZM195 57C192.397 57 189.84 57.195 187.341 57.5714L187.639 59.5491C190.039 59.1875 192.497 59 195 59V57ZM246 108C246 79.8335 223.167 57 195 57V59C222.062 59 244 80.938 244 108H246ZM198.059 158.91C224.802 157.327 246 135.14 246 108H244C244 134.075 223.633 155.393 197.941 156.913L198.059 158.91ZM197 157.911V158H199V157.911H197ZM198 157H195V159H198V157ZM195 157H51V159H195V157ZM52 158V157.99H50V158H52ZM50 159C50.3406 159 50.6805 158.997 51.0196 158.99L50.9804 156.99C50.6544 156.997 50.3276 157 50 157V159ZM-1 108C-1 136.167 21.8335 159 50 159V157C22.938 157 1 135.062 1 108H-1ZM41.5865 57.6909C17.4232 61.7025 -1 82.6988 -1 108H1C1 83.6929 18.6999 63.5179 41.9141 59.6639L41.5865 57.6909ZM40 50C40 53.0176 40.2622 55.9747 40.7652 58.8497L42.7353 58.505C42.2521 55.7434 42 52.9015 42 50H40ZM91 -1C62.8335 -1 40 21.8335 40 50H42C42 22.938 63.938 1 91 1V-1Z" fill="url(#paint0_linear_1_4)" mask="url(#path-1-inside-1_1_4)"/>
</g>
<defs>
<filter id="filter0_b_1_4" x="-23" y="-23" width="291" height="204" filterUnits="userSpaceOnUse" color-interpolation-filters="sRGB">
<feFlood flood-opacity="0" result="BackgroundImageFix"/>
<feGaussianBlur in="BackgroundImageFix" stdDeviation="11.5"/>
<feComposite in2="SourceAlpha" operator="in" result="effect1_backgroundBlur_1_4"/>
<feBlend mode="normal" in="SourceGraphic" in2="effect1_backgroundBlur_1_4" result="shape"/>
</filter>
<linearGradient id="paint0_linear_1_4" x1="112.5" y1="8" x2="102.5" y2="253.5" gradientUnits="userSpaceOnUse">
<stop stop-color="#C8EBFF"/>
<stop offset="0.6875" stop-color="white" stop-opacity="0"/>
<stop offset="0.9999" stop-color="white" stop-opacity="0.0677083"/>
</linearGradient>
</defs>
</svg>
